<?xml version="1.0" encoding="utf-8"?>
<!-- Generator: Adobe Illustrator 27.5.0, SVG Export Plug-In . SVG Version: 6.00 Build 0)  -->
<svg version="1.1" xmlns="http://www.w3.org/2000/svg" xmlns:xlink="http://www.w3.org/1999/xlink" x="0px" y="0px"
	 viewBox="0 0 1924 239.1" style="enable-background:new 0 0 1924 239.1;" xml:space="preserve">
<style type="text/css">
	.st0{fill:#222323;}
	.st1{fill:#E76E51;}
	.st2{fill:#DBD7C1;}
</style>
<g id="Calque_2">
</g>
<g id="Calque_1">
	<path class="st0" d="M1924,2.2v236.9H0V44.3c0.2,0,15.2,0,41,0.4c15.1,0.2,31,0.5,47,0.9c20,0.4,40.5,1,61,1.7
		c51.9,1.7,103.3,4,152.7,6.8c29.4,1.7,58.4,3.6,86.1,5.7c30.6,2.3,60.5,4.8,89,7.6c138.5,13.4,249,31.7,328.4,54.6
		c11.3,3.3,22.1,6.7,32.2,10.1c10.3,3.5,20.1,7.2,29.1,10.9c9.2,3.8,17.8,7.8,25.6,11.8c7.5,3.8,14.8,8.1,21.8,12.7
		c6.2,4.1,12.1,8.7,17.6,13.7c4.9,4.4,9.2,9.3,13.1,14.7c3.4,4.8,6.2,10.1,8.2,15.7c1.9,5.4,2.9,11,3,16.7h0c0.2,3.5,1,6,2.2,7.4
		c0.6,0.8,1.6,1.3,2.7,1.4h0.1c0.1,0,0.2,0,0.4,0h0c1-0.1,2-0.5,2.8-1.2c0.8-0.7,1.5-1.6,1.9-2.6c0.6-1.6,0.9-3.3,0.8-5
		c0.1-5.7,1.1-11.3,3-16.7c2-5.6,4.8-10.9,8.2-15.7c3.8-5.3,8.2-10.2,13.1-14.7c5.5-5,11.4-9.6,17.6-13.7c7-4.7,14.3-8.9,21.8-12.8
		c7.8-4,16.4-8,25.6-11.8c9-3.7,18.8-7.4,29.1-11c10-3.5,20.9-6.8,32.2-10.1c79.4-22.9,189.9-41.3,328.4-54.7
		c28.5-2.8,58.4-5.3,89-7.6c27.8-2.1,56.8-4,86.2-5.7c49.4-2.9,100.8-5.2,152.7-6.8c20.4-0.7,40.9-1.2,61-1.7
		c15.9-0.4,31.8-0.6,47-0.9c25.8-0.3,40.8-0.3,40.9-0.3h0v-42H1924z"/>
	<path id="Soustraction_2" class="st1" d="M961.6,237.1L961.6,237.1c-1.1,0-2.1-0.6-2.7-1.4c-1.2-1.5-2-4-2.2-7.4h0
		c-0.1-5.7-1.1-11.3-3-16.7c-2-5.6-4.8-10.9-8.2-15.7c-3.8-5.3-8.2-10.2-13.1-14.7c-5.5-5-11.4-9.6-17.6-13.7
		c-7-4.6-14.3-8.9-21.8-12.7c-7.8-4-16.4-8-25.6-11.8c-9-3.7-18.8-7.4-29.1-11c-10.1-3.5-20.9-6.9-32.2-10.1
		C726.5,99,615.9,80.7,477.3,67.3c-28.5-2.7-58.4-5.3-89.1-7.6c-27.8-2.1-56.8-4-86.2-5.7c-49.5-2.9-100.9-5.2-152.9-6.8
		c-20.5-0.7-41-1.2-61-1.7C72,45.2,56.2,44.9,41,44.7c-25.8-0.4-40.8-0.4-41-0.4V2.2c2.5,0,62,0.1,149.9,3
		c52,1.7,103.4,4.1,152.9,7.1C364.6,16,423.5,20.7,478,26.2c138.5,13.9,248.9,33,328.3,56.8c20.8,6.1,41.3,13.4,61.2,21.9
		c9.2,4,17.8,8.1,25.6,12.3c7.5,4,14.8,8.4,21.8,13.2c6.2,4.3,12.1,9,17.6,14.2c4.9,4.6,9.3,9.7,13.1,15.2c3.5,5,6.2,10.5,8.2,16.3
		c1.9,5.6,2.9,11.5,3,17.4h0c0.2,3.6,1,6.2,2.2,7.7c0.6,0.9,1.6,1.4,2.7,1.5h0.1c0.1,0,0.2,0,0.4,0c1-0.1,2-0.5,2.8-1.2
		c0.8-0.7,1.5-1.7,1.9-2.7c0.6-1.7,0.9-3.4,0.8-5.2c0.1-5.9,1.1-11.8,3-17.4c2-5.8,4.8-11.3,8.2-16.3c3.8-5.5,8.2-10.6,13.1-15.3
		c5.5-5.2,11.4-10,17.6-14.2c7-4.8,14.3-9.3,21.8-13.3c7.8-4.2,16.4-8.3,25.6-12.3c20-8.5,40.5-15.8,61.3-21.9
		c79.5-23.8,190.1-42.9,328.7-56.8c54.5-5.5,113.5-10.1,175.3-13.8c49.5-3,100.9-5.4,152.9-7.1c88.4-3,148.5-3,149.1-3v42.1h0
		c-0.1,0-15.2,0-41,0.4c-15.3,0.2-31.1,0.5-47.1,0.9c-20.1,0.4-40.6,1-61,1.7c-52,1.7-103.4,4-152.9,6.8
		c-29.4,1.7-58.5,3.6-86.2,5.7c-30.6,2.3-60.6,4.9-89.1,7.6c-138.7,13.4-249.3,31.8-328.7,54.7c-11.3,3.3-22.2,6.7-32.2,10.1
		c-10.3,3.5-20.1,7.2-29.1,11c-9.2,3.8-17.8,7.8-25.6,11.8c-7.5,3.8-14.8,8.1-21.8,12.8c-6.2,4.1-12.1,8.7-17.6,13.7
		c-4.9,4.4-9.3,9.3-13.1,14.7c-3.5,4.8-6.2,10.1-8.2,15.7c-1.9,5.4-2.9,11-3,16.7c0.1,1.7-0.2,3.4-0.8,5c-0.4,1-1,1.9-1.9,2.6
		c-0.8,0.7-1.7,1.1-2.8,1.2h0C961.8,237.1,961.7,237.1,961.6,237.1z"/>
	<path class="st2" d="M1897.8,2.2c-25.5,0.3-69.5,1-124.6,2.8c-51.8,1.7-103.2,4.1-152.6,7.1c-61.7,3.7-120.6,8.4-175,13.8
		c-138.4,13.9-248.7,33-328,56.8c-20.8,6.1-41.2,13.4-61.2,21.9c-9.2,4-17.8,8.1-25.6,12.3c-7.5,4-14.8,8.4-21.7,13.2
		c-6.2,4.3-12.1,9-17.6,14.2c-4.9,4.6-9.3,9.7-13.1,15.3c-3.5,5-6.2,10.5-8.2,16.3c-1.9,5.6-2.9,11.5-3,17.4
		c0.1,1.8-0.2,3.5-0.8,5.2c-0.4,1-1,2-1.9,2.7c-0.8,0.7-1.7,1.1-2.8,1.2c-0.1,0-0.2,0-0.3,0h0c-1.1,0-2-0.6-2.7-1.4
		c-1.2-1.5-2-4.1-2.2-7.7h0c-0.1-5.9-1.1-11.8-3-17.4c-2-5.8-4.7-11.2-8.2-16.3c-3.8-5.5-8.2-10.6-13-15.2
		c-5.5-5.2-11.3-9.9-17.5-14.2c-7-4.8-14.2-9.2-21.7-13.2c-7.8-4.2-16.3-8.3-25.5-12.3c-19.9-8.5-40.3-15.8-61.1-21.9
		C727.4,59.2,617.2,40,479,26.2C424.7,20.7,365.8,16,304.1,12.3c-49.4-3-100.7-5.4-152.6-7.1C107.7,3.7,71,3,44.8,2.6
		C18.7,2.2,3.2,2.2,2,2.2H1897.8z"/>
</g>
</svg>
